<svg width="304" height="58" viewBox="0 0 304 58" fill="none" xmlns="http://www.w3.org/2000/svg">
<path d="M29.2069 14.88V48H18.7909V14.88H29.2069ZM38.4709 14.88V22.656H9.52688V14.88H38.4709ZM46.0766 24L47.3246 28.896L48.2846 29.472V48H38.2046V24H46.0766ZM57.7406 23.328L56.8766 32.544H54.3326C53.4686 32.544 52.4926 32.592 51.4046 32.688C50.3486 32.752 48.9566 32.928 47.2286 33.216L46.6526 27.792C48.2206 26.288 49.8366 25.168 51.5006 24.432C53.1646 23.696 54.7806 23.328 56.3486 23.328H57.7406ZM73.5465 23.328C75.8185 23.328 77.7225 23.632 79.2585 24.24C80.8265 24.816 82.0105 25.824 82.8105 27.264C83.6425 28.672 84.0585 30.624 84.0585 33.12V48H76.0425L74.6505 42.864L73.9785 41.904V33.072C73.9465 32.24 73.7225 31.632 73.3065 31.248C72.9225 30.864 72.2025 30.672 71.1465 30.672C69.8985 30.672 68.3625 30.688 66.5385 30.72C64.7465 30.752 62.8265 30.816 60.7785 30.912L59.8665 24.528C61.0825 24.304 62.5225 24.112 64.1865 23.952C65.8825 23.76 67.5625 23.616 69.2265 23.52C70.8905 23.392 72.3305 23.328 73.5465 23.328ZM80.1705 33.264L80.1225 38.112H70.1865C69.5785 38.112 69.1145 38.256 68.7945 38.544C68.5065 38.8 68.3625 39.152 68.3625 39.6V40.368C68.3625 40.784 68.5225 41.136 68.8425 41.424C69.1945 41.712 69.7065 41.856 70.3785 41.856C71.1465 41.856 71.9465 41.68 72.7785 41.328C73.6105 40.944 74.4105 40.464 75.1785 39.888C75.9465 39.312 76.6025 38.72 77.1465 38.112V41.184C76.9225 41.728 76.5705 42.416 76.0905 43.248C75.6105 44.08 74.9545 44.912 74.1225 45.744C73.3225 46.576 72.3145 47.28 71.0985 47.856C69.9145 48.4 68.4905 48.672 66.8265 48.672C65.3545 48.672 63.9785 48.416 62.6985 47.904C61.4505 47.392 60.4425 46.64 59.6745 45.648C58.9385 44.624 58.5705 43.36 58.5705 41.856V39.456C58.5705 37.536 59.2745 36.032 60.6825 34.944C62.1225 33.824 64.0585 33.264 66.4905 33.264H80.1705ZM114.492 24L107.388 45.648C107.164 46.352 106.764 46.928 106.188 47.376C105.644 47.792 104.988 48 104.22 48H95.628C94.86 48 94.188 47.792 93.612 47.376C93.068 46.928 92.684 46.352 92.46 45.648L85.356 24H96.012L98.94 37.248C99.1 37.984 99.228 38.736 99.324 39.504C99.42 40.272 99.516 41.024 99.612 41.76H100.236C100.332 41.024 100.444 40.272 100.572 39.504C100.7 38.736 100.828 37.984 100.956 37.248L103.836 24H114.492ZM128.598 23.328C133.11 23.328 136.31 24.048 138.198 25.488C140.086 26.928 141.046 29.056 141.078 31.872C141.11 34.112 140.438 35.728 139.062 36.72C137.718 37.712 135.286 38.208 131.766 38.208H118.854V33.456H128.934C130.022 33.456 130.71 33.36 130.998 33.168C131.286 32.944 131.43 32.432 131.43 31.632C131.43 30.864 131.238 30.368 130.854 30.144C130.47 29.92 129.814 29.808 128.886 29.808C127.958 29.776 127.254 29.872 126.774 30.096C126.294 30.32 125.958 30.816 125.766 31.584C125.606 32.32 125.526 33.488 125.526 35.088C125.526 36.56 125.622 37.712 125.814 38.544C126.038 39.376 126.454 39.968 127.062 40.32C127.67 40.672 128.566 40.848 129.75 40.848C130.71 40.848 132.054 40.816 133.782 40.752C135.542 40.688 137.446 40.544 139.494 40.32L140.406 46.368C139.286 46.944 138.086 47.392 136.806 47.712C135.526 48.032 134.198 48.256 132.822 48.384C131.478 48.512 130.086 48.576 128.646 48.576C125.318 48.576 122.646 48.112 120.63 47.184C118.614 46.256 117.158 44.88 116.262 43.056C115.398 41.2 114.966 38.912 114.966 36.192C114.966 33.024 115.414 30.512 116.31 28.656C117.206 26.768 118.646 25.408 120.63 24.576C122.646 23.744 125.302 23.328 128.598 23.328ZM154.222 14.4V39.264C154.222 39.872 154.414 40.32 154.798 40.608C155.214 40.864 155.822 40.992 156.622 40.992H158.254L159.358 47.424C158.878 47.712 158.19 47.936 157.294 48.096C156.43 48.288 155.534 48.432 154.606 48.528C153.71 48.624 152.942 48.672 152.302 48.672C149.774 48.672 147.79 48.08 146.35 46.896C144.91 45.712 144.19 44.064 144.19 41.952V14.4H154.222ZM185.558 14.208C187.318 14.208 188.854 14.256 190.166 14.352C191.51 14.448 192.742 14.592 193.862 14.784C195.014 14.976 196.166 15.248 197.318 15.6L196.55 23.088C195.334 23.056 194.166 23.04 193.046 23.04C191.958 23.04 190.822 23.04 189.638 23.04C188.454 23.008 187.11 22.992 185.606 22.992C184.678 22.992 183.91 23.12 183.302 23.376C182.694 23.6 182.214 24.032 181.862 24.672C181.51 25.28 181.254 26.144 181.094 27.264C180.966 28.352 180.902 29.744 180.902 31.44C180.902 33.68 181.03 35.408 181.286 36.624C181.542 37.808 181.974 38.64 182.582 39.12C183.19 39.568 184.038 39.792 185.126 39.792C185.83 39.792 186.47 39.776 187.046 39.744C187.654 39.68 188.198 39.6 188.678 39.504C189.158 39.408 189.542 39.328 189.83 39.264L190.838 43.632C190.454 44.272 189.814 44.992 188.918 45.792C188.054 46.592 186.95 47.28 185.606 47.856C184.262 48.4 182.71 48.672 180.95 48.672C178.422 48.672 176.342 48.112 174.71 46.992C173.078 45.84 171.878 44 171.11 41.472C170.342 38.944 169.958 35.6 169.958 31.44C169.958 27.184 170.454 23.808 171.446 21.312C172.47 18.784 174.118 16.976 176.39 15.888C178.694 14.768 181.75 14.208 185.558 14.208ZM198.71 28.944V48H191.03L189.686 42.864L188.726 41.088V28.944H198.71ZM243.007 24V48H232.975V24H243.007ZM240.127 13.008C242.079 13.008 243.055 14 243.055 15.984V18.432C243.055 20.416 242.079 21.408 240.127 21.408H235.855C233.903 21.408 232.927 20.416 232.927 18.432V15.984C232.927 14 233.903 13.008 235.855 13.008H240.127ZM255.714 23.328C257.538 23.328 259.234 23.6 260.802 24.144C262.402 24.688 263.698 25.632 264.69 26.976L263.97 30.912C263.33 30.72 262.706 30.512 262.098 30.288C261.522 30.032 260.738 29.904 259.746 29.904C259.074 29.904 258.53 30.032 258.114 30.288C257.73 30.512 257.442 31.024 257.25 31.824C257.058 32.624 256.962 33.888 256.962 35.616C256.962 37.088 257.042 38.176 257.202 38.88C257.394 39.552 257.682 40 258.066 40.224C258.482 40.416 258.994 40.512 259.602 40.512C260.306 40.512 260.898 40.464 261.378 40.368C261.858 40.24 262.274 40.08 262.626 39.888C263.01 39.696 263.41 39.488 263.826 39.264L264.45 43.392C263.81 44.864 262.754 46.096 261.282 47.088C259.842 48.08 257.842 48.576 255.282 48.576C252.146 48.576 249.906 47.456 248.562 45.216C247.25 42.944 246.594 39.776 246.594 35.712C246.594 32.416 246.93 29.888 247.602 28.128C248.306 26.336 249.33 25.088 250.674 24.384C252.05 23.68 253.73 23.328 255.714 23.328ZM272.946 14.4V48H264.93L263.97 43.392L262.866 42.624V27.552L263.154 26.976C263.09 25.952 263.026 24.848 262.962 23.664C262.898 22.448 262.866 21.264 262.866 20.112V14.4H272.946ZM289.848 23.328C294.36 23.328 297.56 24.048 299.448 25.488C301.336 26.928 302.296 29.056 302.328 31.872C302.36 34.112 301.688 35.728 300.312 36.72C298.968 37.712 296.536 38.208 293.016 38.208H280.104V33.456H290.184C291.272 33.456 291.96 33.36 292.248 33.168C292.536 32.944 292.68 32.432 292.68 31.632C292.68 30.864 292.488 30.368 292.104 30.144C291.72 29.92 291.064 29.808 290.136 29.808C289.208 29.776 288.504 29.872 288.024 30.096C287.544 30.32 287.208 30.816 287.016 31.584C286.856 32.32 286.776 33.488 286.776 35.088C286.776 36.56 286.872 37.712 287.064 38.544C287.288 39.376 287.704 39.968 288.312 40.32C288.92 40.672 289.816 40.848 291 40.848C291.96 40.848 293.304 40.816 295.032 40.752C296.792 40.688 298.696 40.544 300.744 40.32L301.656 46.368C300.536 46.944 299.336 47.392 298.056 47.712C296.776 48.032 295.448 48.256 294.072 48.384C292.728 48.512 291.336 48.576 289.896 48.576C286.568 48.576 283.896 48.112 281.88 47.184C279.864 46.256 278.408 44.88 277.512 43.056C276.648 41.2 276.216 38.912 276.216 36.192C276.216 33.024 276.664 30.512 277.56 28.656C278.456 26.768 279.896 25.408 281.88 24.576C283.896 23.744 286.552 23.328 289.848 23.328Z" fill="white"/>
<path d="M206.2 40.7333C206.625 40.6096 207.081 40.6594 207.468 40.872C207.856 41.0845 208.143 41.4423 208.267 41.8667C208.391 42.291 208.341 42.7471 208.128 43.1347C207.916 43.5223 207.558 43.8096 207.134 43.9333C206.3 44.1767 205.7 44.4333 205.315 44.6667C205.712 44.905 206.339 45.1717 207.209 45.42C209.134 45.97 211.889 46.3333 215 46.3333C218.112 46.3333 220.867 45.97 222.792 45.42C223.664 45.1717 224.289 44.905 224.685 44.6667C224.302 44.4333 223.702 44.1767 222.869 43.9333C222.451 43.8041 222.101 43.516 221.894 43.131C221.686 42.746 221.639 42.295 221.761 41.8752C221.883 41.4555 222.166 41.1005 222.547 40.8869C222.928 40.6733 223.379 40.6182 223.8 40.7333C224.914 41.0583 225.934 41.475 226.717 42.01C227.442 42.5083 228.334 43.3767 228.334 44.6667C228.334 45.9717 227.42 46.8467 226.684 47.345C225.887 47.8817 224.845 48.3 223.707 48.625C221.41 49.2833 218.334 49.6667 215 49.6667C211.667 49.6667 208.59 49.2833 206.294 48.625C205.155 48.3 204.114 47.8817 203.317 47.345C202.58 46.845 201.667 45.9717 201.667 44.6667C201.667 43.3767 202.559 42.5083 203.284 42.01C204.067 41.475 205.087 41.0583 206.2 40.7333Z" fill="white"/>
<path d="M215.377 15C218.66 15 221.808 16.304 224.129 18.6252C226.451 20.9464 227.755 24.0947 227.755 27.3774C227.755 31.6049 225.45 35.0651 223.021 37.5474C221.808 38.7742 220.484 39.8865 219.066 40.8701L218.48 41.2689L218.205 41.4518L217.686 41.7819L217.224 42.0638L216.652 42.3966C216.264 42.6182 215.825 42.7348 215.377 42.7348C214.93 42.7348 214.491 42.6182 214.103 42.3966L213.53 42.0638L212.815 41.6237L212.551 41.4518L211.987 41.0763C210.458 40.0415 209.033 38.8596 207.734 37.5474C205.305 35.0637 203 31.6049 203 27.3774C203 24.0947 204.304 20.9464 206.625 18.6252C208.946 16.304 212.095 15 215.377 15Z" fill="#606C38"/>
<g clip-path="url(#clip0_400_2452)">
<path d="M210.127 26.8111L212.683 27.5489L215.492 25.5089L211.461 25.6245C211.421 25.6262 211.383 25.6385 211.349 25.66L210.074 26.3933C210.034 26.4153 210.002 26.4487 209.982 26.4892C209.961 26.5296 209.953 26.5753 209.959 26.6203C209.965 26.6653 209.984 26.7076 210.014 26.7416C210.044 26.7756 210.083 26.7998 210.127 26.8111Z" fill="white"/>
<path d="M222.692 24.5267L219.892 23.9222C219.656 23.8711 219.412 23.8712 219.177 23.9226C218.942 23.974 218.72 24.0754 218.527 24.22L210.069 30.3667L208.038 30.2778C207.922 30.2738 207.807 30.3065 207.711 30.3712C207.614 30.436 207.54 30.5294 207.499 30.6385C207.458 30.7475 207.453 30.8666 207.483 30.9789C207.514 31.0912 207.579 31.1911 207.669 31.2645L209.647 32.8333C209.68 32.8596 209.719 32.8771 209.76 32.8841C209.801 32.8911 209.843 32.8874 209.883 32.8733C210.447 32.6556 212.549 31.54 215.034 30.1756L215.532 35.2911C215.536 35.3354 215.552 35.3777 215.579 35.4135C215.605 35.4492 215.641 35.4771 215.682 35.494C215.723 35.5109 215.768 35.5163 215.812 35.5095C215.856 35.5027 215.897 35.4841 215.932 35.4556L217.043 34.5311C217.104 34.4801 217.144 34.4093 217.158 34.3311L218.212 28.4245C219.989 27.4378 221.687 26.4822 222.883 25.8067C223.007 25.7392 223.107 25.6351 223.17 25.5087C223.233 25.3823 223.256 25.2395 223.235 25.0998C223.214 24.9601 223.151 24.8302 223.054 24.7277C222.956 24.6252 222.83 24.555 222.692 24.5267Z" fill="white"/>
</g>
<defs>
<clipPath id="clip0_400_2452">
<rect width="16" height="16" fill="white" transform="translate(207.35 21.7)"/>
</clipPath>
</defs>
</svg>
